<?xml version="1.0" encoding="UTF-8"?>
<svg width="52px" height="15px" viewBox="0 0 52 15" version="1.1" xmlns="http://www.w3.org/2000/svg" xmlns:xlink="http://www.w3.org/1999/xlink">
    <!-- Generator: Sketch 58 (84663) - https://sketch.com -->
    <title>Group</title>
    <desc>Created with Sketch.</desc>
    <g id="Page-1" stroke="none" stroke-width="1" fill="none" fill-rule="evenodd">
        <g id="Group" transform="translate(-0.500000, 0.000000)" fill="#000000" fill-rule="nonzero">
            <path d="M26.4511719,3.33886719 L19.5957031,3.33886719 L19.5957031,6.08984375 L25.8886719,6.08984375 L25.8886719,8.33984375 L19.5957031,8.33984375 L19.5957031,11.6708984 L26.7675781,11.6708984 L26.7675781,14 L16.9501953,14 L16.9501953,1.04492188 L26.4511719,1.04492188 L26.4511719,3.33886719 Z M28.8769531,1.04492188 L31.5839844,1.04492188 L31.5839844,11.6708984 L38,11.6708984 L38,14 L28.8769531,14 L28.8769531,1.04492188 Z M45.6025391,12.0664062 C46.67481,12.0664062 47.5258758,11.6709024 48.1557617,10.8798828 C48.7856477,10.0888632 49.1005859,8.96387448 49.1005859,7.50488281 C49.1005859,6.05175055 48.7856477,4.92822663 48.1557617,4.13427734 C47.5258758,3.34032806 46.67481,2.94335938 45.6025391,2.94335938 C44.5302681,2.94335938 43.6748079,3.33886323 43.0361328,4.12988281 C42.3974577,4.92090239 42.078125,6.04589114 42.078125,7.50488281 C42.078125,8.96387448 42.3974577,10.0888632 43.0361328,10.8798828 C43.6748079,11.6709024 44.5302681,12.0664062 45.6025391,12.0664062 Z M51.8076172,7.50488281 C51.8076172,9.71475714 51.2180015,11.4328129 50.0387533,12.6590959 L49.8476562,12.8486328 C48.8691357,13.8564504 47.4541108,14.3603516 45.6025391,14.3603516 C43.8598833,14.3603516 42.5039265,13.9139892 41.5346332,13.021252 L41.3574219,12.8486328 C40.0449153,11.6122985 39.3886719,9.83106632 39.3886719,7.50488281 C39.3886719,5.13182407 40.0449153,3.35059188 41.3574219,2.16113281 C42.3359424,1.15331527 43.7509673,0.649414062 45.6025391,0.649414062 C47.3451948,0.649414062 48.7011517,1.09577638 49.670445,1.98851362 L49.8476562,2.16113281 C51.1543034,3.35059188 51.8076172,5.13182407 51.8076172,7.50488281 Z" id="ELO"></path>
            <polygon id="K" transform="translate(7.697266, 7.552539) rotate(-90.000000) translate(-7.697266, -7.552539) " points="1.34472656 0.355273437 4.30371094 0.355273437 4.30371094 6.28300781 9.86035156 0.355273437 13.7470703 0.355273437 7.84863281 6.28300781 14.0498047 14.7498047 10.1826172 14.7498047 5.73925781 8.46074219 4.30371094 9.93535156 4.30371094 14.7498047 1.34472656 14.7498047"></polygon>
        </g>
    </g>
</svg>